<?xml version="1.0" standalone="no"?>
<!DOCTYPE svg PUBLIC "-//W3C//DTD SVG 20010904//EN"
 "http://www.w3.org/TR/2001/REC-SVG-20010904/DTD/svg10.dtd">
<svg version="1.0" xmlns="http://www.w3.org/2000/svg"
 width="387.000000pt" height="140.000000pt" viewBox="0 0 387.000000 140.000000"
 preserveAspectRatio="xMidYMid meet">

<g transform="translate(0.000000,140.000000) scale(0.100000,-0.100000)"
fill="#000000" stroke="none">
<path d="M1978 1390 c-9 -6 -74 -76 -144 -156 l-126 -145 23 -25 c20 -21 21
-27 9 -34 -28 -18 -42 -10 -137 75 -52 47 -101 85 -107 85 -7 0 -21 -7 -32
-15 -25 -19 -34 -19 -34 1 0 9 -6 14 -12 11 -7 -2 -78 -25 -158 -51 -80 -26
-162 -54 -182 -63 l-38 -16 0 -94 0 -95 30 7 c22 5 30 3 30 -8 0 -10 -16 -16
-53 -20 -44 -4 -89 -19 -139 -45 -5 -2 -8 23 -8 56 0 113 -82 217 -205 259
-76 26 -238 23 -340 -6 -120 -34 -287 -122 -338 -178 -17 -20 -15 -24 64 -157
86 -143 82 -139 134 -119 6 2 55 -99 110 -224 154 -354 154 -353 179 -353 29
0 217 63 256 86 36 22 37 35 10 129 -11 38 -20 71 -20 73 0 2 12 -11 27 -29
15 -17 50 -42 78 -55 80 -38 170 -29 251 26 l42 28 5 -40 c3 -22 7 -42 10 -44
9 -10 246 35 271 51 24 16 26 23 26 86 0 38 2 69 5 69 3 0 95 -45 205 -100
110 -55 206 -100 214 -100 8 0 27 5 41 12 24 11 25 14 25 115 0 81 3 103 14
103 7 0 44 15 81 34 l67 34 -6 -67 c-4 -36 -11 -97 -17 -134 -6 -38 -9 -71 -6
-73 17 -17 136 -37 232 -37 139 -2 230 23 296 81 l43 39 21 -31 c32 -48 96
-91 173 -115 58 -19 87 -22 172 -19 88 3 104 6 117 23 15 20 15 20 30 -3 9
-12 21 -22 27 -22 6 0 45 48 86 106 l74 106 201 -207 c151 -157 205 -207 220
-204 17 3 26 27 56 149 21 80 37 159 37 175 1 26 -17 46 -153 164 l-155 134
28 17 c15 9 64 36 110 61 45 24 82 47 82 52 0 5 -41 78 -92 164 l-91 155 -40
-5 c-22 -3 -43 -9 -46 -14 -4 -4 -36 -36 -72 -71 l-66 -63 -63 98 c-35 54 -64
99 -64 100 -6 9 -271 -98 -291 -117 -24 -23 -25 -27 -19 -102 l7 -78 -62 0
c-57 0 -61 1 -61 23 0 13 -7 46 -15 74 -33 111 -160 203 -327 237 -93 19 -288
20 -338 2 -32 -12 -35 -16 -35 -54 0 -23 -1 -42 -1 -42 -1 0 -18 7 -37 15 -20
8 -48 15 -62 15 -14 0 -25 3 -25 8 0 4 36 27 80 51 44 25 80 50 80 58 0 24
-113 193 -129 193 -9 0 -24 -5 -33 -10z m65 -126 c15 -26 27 -48 25 -49 -20
-18 -193 -94 -199 -88 -7 7 127 181 141 182 3 1 18 -20 33 -45z m399 -178
c197 -38 307 -127 308 -249 0 -34 -6 -45 -48 -82 -79 -72 -118 -181 -94 -267
10 -36 8 -39 -24 -67 -52 -46 -130 -65 -242 -58 -52 3 -97 8 -100 12 -3 3 9
108 26 233 18 125 32 230 32 234 0 3 -14 11 -30 17 -25 8 -30 15 -26 33 3 13
8 50 11 83 13 129 11 125 65 125 27 0 81 -6 122 -14z m-1077 -83 c3 -49 7 -95
8 -103 1 -8 33 29 70 82 38 54 71 100 75 102 8 5 143 -115 142 -126 0 -4 -43
-53 -95 -109 -53 -56 -92 -105 -88 -109 4 -4 45 -21 89 -39 63 -25 89 -41 113
-71 36 -45 97 -83 159 -100 l42 -11 0 -64 0 -65 -240 120 -240 120 0 -124 c0
-69 -3 -127 -7 -129 -5 -3 -33 -8 -64 -12 l-57 -7 -3 52 c-2 28 1 61 8 73 42
76 36 190 -14 264 -19 29 -27 57 -34 127 -5 50 -9 97 -9 105 0 10 -8 12 -31 7
-28 -5 -30 -4 -27 21 3 25 11 30 88 54 47 15 90 27 97 28 7 1 13 -30 18 -86z
m-667 37 c63 -27 118 -87 133 -144 24 -88 -28 -198 -139 -296 l-59 -52 34
-126 c54 -202 56 -185 -16 -207 -37 -11 -65 -15 -70 -9 -5 5 -61 128 -126 274
-65 146 -125 279 -133 297 l-15 31 -33 -16 c-19 -8 -35 -14 -37 -11 -14 15
-87 149 -87 158 0 23 178 99 281 121 75 16 207 6 267 -20z m2589 -120 c43 -71
81 -130 84 -130 3 0 49 41 102 90 53 50 99 90 101 90 2 0 30 -41 61 -91 66
-104 76 -83 -77 -179 -54 -34 -98 -64 -97 -68 0 -4 76 -74 169 -157 93 -82
169 -155 170 -161 1 -26 -33 -155 -40 -152 -4 2 -88 86 -186 188 -98 102 -183
186 -189 187 -5 1 -44 -36 -85 -83 -41 -46 -78 -84 -82 -84 -4 0 -23 21 -43
47 l-36 47 47 14 c51 15 51 14 29 117 -5 26 -2 33 29 53 l35 24 -101 134 c-90
120 -102 132 -120 123 -23 -13 -24 -12 -33 22 -6 25 -3 27 87 62 51 19 94 36
95 36 1 1 37 -57 80 -129z m-1242 91 c22 -10 50 -29 62 -42 l22 -25 -93 -104
c-93 -104 -100 -121 -40 -106 13 4 39 20 57 36 l34 29 47 -48 47 -48 -37 -33
c-57 -49 -118 -73 -205 -78 -67 -4 -84 -1 -132 21 -100 45 -143 156 -103 262
46 119 224 190 341 136z m990 -202 c11 -17 2 -18 -25 -4 -24 14 -24 14 -3 15
12 0 25 -5 28 -11z m-1408 -56 c-4 -3 -18 -2 -33 1 l-27 7 24 25 24 25 8 -26
c5 -14 7 -29 4 -32z m-467 22 c52 -27 90 -95 90 -162 0 -80 -74 -187 -155
-224 -58 -27 -143 -25 -186 4 -97 65 -114 186 -41 292 29 42 116 101 161 108
36 6 101 -3 131 -18z m1861 -57 c48 -25 72 -45 97 -82 17 -26 32 -59 32 -72 0
-25 1 -25 -187 -75 -46 -11 -83 -25 -83 -29 0 -14 89 -32 123 -26 l34 6 17
-61 c10 -33 15 -63 12 -66 -13 -13 -111 -15 -167 -3 -169 36 -266 171 -215
303 33 86 108 136 207 137 55 0 76 -5 130 -32z"/>
<path d="M2390 733 c0 -4 -7 -63 -16 -131 -9 -68 -13 -126 -10 -130 11 -10
114 28 146 54 34 30 55 91 41 126 -18 47 -82 88 -137 88 -13 0 -24 -3 -24 -7z
m68 -117 c5 -25 -6 -66 -18 -66 -6 0 -10 21 -10 46 0 32 4 44 13 42 6 -3 14
-13 15 -22z"/>
<path d="M558 873 c-10 -2 -18 -9 -18 -15 0 -18 61 -212 70 -221 4 -5 31 13
59 40 47 46 51 53 51 97 0 39 -5 53 -29 77 -24 24 -37 29 -73 28 -24 -1 -51
-3 -60 -6z m80 -85 c14 -14 16 -68 3 -68 -8 0 -31 52 -31 71 0 13 14 11 28 -3z"/>
<path d="M1846 909 c-44 -38 -54 -83 -31 -133 30 -63 29 -64 152 83 l37 43
-23 19 c-37 30 -93 25 -135 -12z m74 -36 c-1 -5 -16 -26 -35 -48 l-35 -40 0
37 c0 25 6 40 18 47 20 12 52 14 52 4z"/>
<path d="M1006 735 c-38 -20 -55 -44 -56 -78 0 -64 46 -107 115 -107 60 0 113
64 98 121 -5 16 -8 15 -30 -11 -29 -35 -64 -39 -93 -10 -27 27 -25 55 6 79 23
18 24 21 8 21 -11 0 -32 -7 -48 -15z"/>
<path d="M2865 660 c-33 -13 -63 -53 -69 -90 -11 -63 -1 -65 118 -29 58 18
106 37 106 43 0 20 -30 56 -60 71 -32 16 -64 18 -95 5z m55 -55 c10 -12 8 -16
-15 -25 -30 -11 -65 -13 -65 -3 0 14 34 43 50 43 10 0 23 -7 30 -15z"/>
</g>
</svg>
